<svg id="Laag_1" data-name="Laag 1" xmlns="http://www.w3.org/2000/svg" viewBox="0 0 563.48 216.06"><defs><style>.cls-1{fill:#c1a35c;}.cls-2{fill:#fdfdfd;}.cls-3{fill:#fefefe;}.cls-4{fill:#fafafa;}.cls-5{fill:#030404;}.cls-6{fill:#010101;}</style></defs><path class="cls-1" d="M360.09,176.21a47.09,47.09,0,0,0,8.12-4,500,500,0,0,0,48-31.44c.61-.45,1.21-.89,1.86-.21a1.45,1.45,0,0,1,0,2.05,1.07,1.07,0,0,1-.16.14,39.27,39.27,0,0,1-6.36,5.29c-13.68,9.7-27.54,19.11-42.16,27.35A46.58,46.58,0,0,1,359.17,180a2.13,2.13,0,0,0-.43.13c-.56.24-1.37-.33-1.73.37a6.17,6.17,0,0,0-.43,1.84c-1,6.23-2,12.44-2.86,18.68-.67,4.61-1.19,9.24-1.83,13.86-.13.94-.32,2-1.55,2.18-.84.12-1.67-.82-2.08-2a7.15,7.15,0,0,1,.1-3.22c1.17-9.35,2.41-18.7,3.92-28,.65-4,1.38-8,2.07-12a5.21,5.21,0,0,0,0-.79c-2,1.92-3.85,3.81-5.87,5.52a35,35,0,0,1-8.63,5.76,10,10,0,0,1-13.29-4.83c-.08-.16-.15-.33-.22-.5a21,21,0,0,1-1.55-6.95,57.85,57.85,0,0,1,1.09-17.36,4.21,4.21,0,0,0,0-.71c-.9,1.12-1.68,2.08-2.45,3.05a183.23,183.23,0,0,1-15.93,18.05,48.49,48.49,0,0,1-11,8.54,11.77,11.77,0,0,1-6.18,1.68c-3.71-.19-7.66-3.3-9-7.23a21,21,0,0,1-1.14-6.24c0-.86-.21-1.14-1.16-.76-6,2.37-11.94,4.67-17.92,7a1.55,1.55,0,0,0-1.09,1c-2.75,7.94-7.58,14.59-13.1,20.79-13.1,14.7-28.75,26.08-46.1,35.25a25.83,25.83,0,0,1-8.65,3.21c-4.12.54-8.12.29-11.14-3.13-2.55-2.9-3-6.26-2.12-10,1.67-7.37,6.22-12.7,11.75-17.49,10.72-9.28,23.43-15,36.23-20.61,9.57-4.17,19.41-7.67,29.13-11.45a1.71,1.71,0,0,0,1.19-1.38A24.58,24.58,0,0,0,257,159a29,29,0,0,0-6.2-10.53c-5.47-6.42-12.28-11.18-19.35-15.64-5.78-3.66-12.1-6.08-18.53-8.29-2.17-.74-4.34-1.53-6.52-2.31.26-.29.6-.13.88-.14h9.31a9.35,9.35,0,0,1,3.47.66,86.27,86.27,0,0,1,33.6,22.79,30.31,30.31,0,0,1,8.19,16.35,24.59,24.59,0,0,1-.21,8.68,1.11,1.11,0,0,0,0,.91,85.82,85.82,0,0,0,8.05-3c3.16-1.22,6.33-2.43,9.42-3.84a1.07,1.07,0,0,0,.77-1.12,61.83,61.83,0,0,1,9.18-30.94,14.32,14.32,0,0,1,5.07-5.27,7.56,7.56,0,0,1,5.93-.79A3.83,3.83,0,0,1,303,131.1a2.68,2.68,0,0,1-.07.27,41.46,41.46,0,0,1-3.84,9.14,96.5,96.5,0,0,1-13.72,19,3.48,3.48,0,0,1-.47.47,4.09,4.09,0,0,0-1.76,3.59,30.12,30.12,0,0,0,1.42,11.81,6.74,6.74,0,0,0,8.5,4.34,4.24,4.24,0,0,0,.5-.18A27.92,27.92,0,0,0,302,174a165.38,165.38,0,0,0,26.08-29.76,7.2,7.2,0,0,0,.69-1.39,53.26,53.26,0,0,1,6.24-12,10.48,10.48,0,0,1,6-4.43,7.44,7.44,0,0,1,4,.07,3.84,3.84,0,0,1,2.71,4.42,34.2,34.2,0,0,1-3.76,9.28A88.53,88.53,0,0,1,328.53,161a1.4,1.4,0,0,0-.54.93c-.3,4.49-.3,8.94,1.23,13.27a6.77,6.77,0,0,0,8.44,4.54,6.21,6.21,0,0,0,.82-.3,33.84,33.84,0,0,0,9.63-6.65,88.35,88.35,0,0,0,6.57-6.42,3.68,3.68,0,0,0,.95-1.82c1.85-9,3.77-18,5.64-27,1-4.88,2.26-9.71,3.46-14.55a1.08,1.08,0,0,1,1.27-1c1,.08,1.94,0,3,0l-.7,3.18.18.07c.43-.86.9-1.7,1.3-2.57a1,1,0,0,1,1.1-.7c1.16,0,2.31,0,3.44,0,.18.44-.09.72-.23,1-2.81,5.55-5.43,11.21-9,16.35-.83,1.2-.79,2.77-1.1,4.18-1.13,5.17-2.22,10.34-3.14,15.6l.63-1a48.41,48.41,0,0,1,12.4-14.86,10.7,10.7,0,0,1,5-2.57,3.81,3.81,0,0,1,4.49,2.9,8,8,0,0,1-.57,5.34c-1.53,3.44-4,6.19-6.5,8.92-5.2,5.72-10.66,11.2-15.59,17.17a2.67,2.67,0,0,0-.7,1l-.15.12C359.91,176.33,360,176.29,360.09,176.21Zm.57-6.84a6.74,6.74,0,0,0,1.38-1.44c4.93-5.36,10-10.55,14.62-16.22a14.06,14.06,0,0,0,3.22-5.57c.11-.49.3-1.11-.14-1.48s-1,0-1.45.21a19.2,19.2,0,0,0-4.4,3.42c-5.72,5.54-9.65,12.27-12.76,19.53a2.54,2.54,0,0,0-.45,1.58h-.15v.12Zm-76.25-15a3.81,3.81,0,0,0,.5-.4,81.25,81.25,0,0,0,12-17.56c.75-1.49,1.4-3,2.07-4.57.22-.51.45-1.14,0-1.58s-1-.15-1.49,0a7.9,7.9,0,0,0-4.79,3.45A55.09,55.09,0,0,0,285.9,148a24.88,24.88,0,0,0-1.57,6.47c-.15-.06-.17,0-.11.13ZM255,178.63a1.36,1.36,0,0,0-1,.18c-5,1.94-10,3.84-15,5.83-10.24,4.09-20.43,8.32-30.12,13.65-7.39,4.06-14.41,8.64-20.1,15a25.3,25.3,0,0,0-6.09,10.43,7.62,7.62,0,0,0,.15,4.72,5.54,5.54,0,0,0,3.7,3.72A9.35,9.35,0,0,0,191,232a40.23,40.23,0,0,0,11.26-4.23,141.72,141.72,0,0,0,23.21-15.53c7.79-6.33,15.24-13,21.54-20.83A61.55,61.55,0,0,0,255,178.63Zm74.1-24.25a76.63,76.63,0,0,0,12.48-17.82c.72-1.43,1.38-2.88,2-4.35.25-.6.69-1.35.23-1.89s-1.25-.17-1.89,0a7.66,7.66,0,0,0-4.38,3.27,57,57,0,0,0-6.94,14.56A33.28,33.28,0,0,0,329.1,154.38Z" transform="translate(-13 -20.48)"/><path class="cls-2" d="M319.84,103.41c1-2.88,2-5.76,2.91-8.64Q326,84.9,329.3,75a1.16,1.16,0,0,1,1.34-.94q6.06.07,12.11,0c.88,0,1,.28,1,1.08v43c0,.86-.19,1.16-1.11,1.14-2.39-.07-4.79-.06-7.18,0-.87,0-1.11-.21-1.11-1.11V84.79l-.17-.06c-.76,2.3-1.52,4.6-2.26,6.91q-4.31,13.35-8.57,26.73a1.09,1.09,0,0,1-1.24.91h0q-2.58-.09-5.16,0a1.22,1.22,0,0,1-1.39-1q-4.92-16-9.89-32c-.12-.38-.25-.75-.43-1.28a2.14,2.14,0,0,0-.23,1.38v31.71c0,1-.17,1.3-1.2,1.26-2.35-.08-4.71-.08-7.06,0-1,0-1.14-.37-1.14-1.24V75c0-.72.24-.87.9-.86H309a1,1,0,0,1,1.15.82.09.09,0,0,1,0,0Q314,86.89,318,98.78c.51,1.55,1,3.09,1.56,4.63Z" transform="translate(-13 -20.48)"/><path class="cls-3" d="M13,96.65V75.26c0-.88.13-1.21,1.12-1.2,5.56.07,11.13-.06,16.7.1a31.55,31.55,0,0,1,13.17,3,19.13,19.13,0,0,1,11.22,15.6c.66,5.1.28,10-2.32,14.63-3.33,5.88-8.59,9.13-15,10.84a32.7,32.7,0,0,1-8.41,1H14.17c-.91,0-1.18-.2-1.17-1.15C13.06,111,13,103.82,13,96.65Zm15.07,13.46a39.88,39.88,0,0,0,5-.35c9.63-1.48,12.7-7.92,11.61-15.9-.7-5.14-4.18-8.1-9-9.67-4-1.29-8-.82-12.11-.92-.58,0-.54.35-.54.74v25.31c0,.68.26.82.85.8,1.34,0,2.58,0,4.23,0Z" transform="translate(-13 -20.48)"/><path class="cls-3" d="M447.67,116.47c-6.92,0-13-2.14-17.55-7.56-4.19-5-5.44-10.9-5-17.25a22,22,0,0,1,4.22-11.82,20.54,20.54,0,0,1,13.11-8,25,25,0,0,1,16.23,2,19.63,19.63,0,0,1,10.53,12.68c1.94,6.79,1.54,13.44-2,19.65s-9,9.21-15.85,10.19c-.62.09-1.26.16-1.89.2S448.27,116.47,447.67,116.47Zm13.05-23.19a12.68,12.68,0,0,0-12.09-13.23h-.07c-4.47-.2-8.31,1.12-11.09,4.8s-3.31,7.85-2.54,12.21c.84,4.66,3.31,8.28,7.91,9.87s9.36,1.25,13.33-2.15C459.47,102,460.71,98.17,460.72,93.28Z" transform="translate(-13 -20.48)"/><path class="cls-3" d="M246.24,116.51c-6.61-.07-12.49-2-17-7s-5.93-11.13-5.48-17.74a22,22,0,0,1,4.32-12,20.49,20.49,0,0,1,13.06-7.93,24.59,24.59,0,0,1,16.12,1.93c7,3.5,10.58,9.36,11.48,17A24,24,0,0,1,265.86,106c-3.55,6.1-9.05,9.26-15.93,10.25A25.34,25.34,0,0,1,246.24,116.51Zm13.08-23C259.52,87,255,80.36,247.16,80c-4.39-.17-8.17,1.07-11,4.65s-3.45,7.87-2.67,12.29c.85,4.8,3.41,8.49,8.18,10s9.62,1.06,13.54-2.66c3-2.78,4.12-6.38,4.11-10.8Z" transform="translate(-13 -20.48)"/><path class="cls-2" d="M507.61,100.21c-6.81-1.49-9.09-7.37-8.91-13.14a15.53,15.53,0,0,1,.89-5c1.64-4.32,5-6.52,9.34-7.45a24.32,24.32,0,0,1,5.11-.49H529.4c.79,0,1,.22,1,1v43.26c0,.71-.16,1-.93,1h-7.18c-.81,0-1.08-.19-1.07-1v-16c0-.87-.24-1.08-1-1-1.15.09-2.55-.32-3.4.2s-1.12,1.93-1.61,3c-2.24,4.66-4.49,9.31-6.69,14a1.39,1.39,0,0,1-1.51,1h-8.75c-.93,0-1.09-.13-.6-1,3.26-5.85,6.48-11.73,9.7-17.59Zm13.63-12.59V83.25c0-.55-.12-.82-.74-.8a73.63,73.63,0,0,0-7.72.2c-2.78.34-4.48,2-4.58,4.6-.13,3.19,1,4.73,4.16,5.28,2.78.48,5.59.12,8.38.22.54,0,.49-.31.49-.65Z" transform="translate(-13 -20.48)"/><path class="cls-3" d="M202.39,93.89c0,10.79-6.69,19.13-17.44,21.68-6.49,1.54-12.86,1.39-19-1.56a17.56,17.56,0,0,1-5.52-4.31c-.44-.49-.4-.75.14-1.11,2.48-1.66,4.94-3.35,7.39-5,.4-.28.63-.33,1,.1,3.58,4.09,8.16,4.94,13.13,3.57a12.49,12.49,0,0,0,9.16-10,14.18,14.18,0,0,0-3.09-12.77c-4.77-5.51-14.27-5.71-18.67-1.33a.65.65,0,0,1-.91.15l-.09-.08c-2.29-1.73-4.58-3.47-6.91-5.14-.59-.43-.33-.64,0-1a15.48,15.48,0,0,1,7-4.31c9.15-2.72,17.82-1.78,25.62,3.9C199.91,80.83,202.35,86.84,202.39,93.89Z" transform="translate(-13 -20.48)"/><path class="cls-3" d="M127,119.28a22.35,22.35,0,0,1-11.27-2.67c-5.74-3.3-7.54-9.22-6.13-15A9.31,9.31,0,0,1,113.82,96c2.63-1.73,5.63-2.48,8.59-3.33a44.2,44.2,0,0,0,5.37-1.85,3.75,3.75,0,0,0,2.6-3.55,3.82,3.82,0,0,0-2.44-3.56,11,11,0,0,0-11.17,1.31c-.46.4-.71.48-1.16,0-1.91-2-3.84-4-5.81-5.92-.55-.54-.4-.78.12-1.18a20.32,20.32,0,0,1,10.59-3.79,22.75,22.75,0,0,1,12.54,2c5.08,2.52,8,6.49,7.86,12.32a9.57,9.57,0,0,1-4.32,8c-2.64,1.84-5.7,2.67-8.72,3.6a46.8,46.8,0,0,0-6.06,2.23,3.83,3.83,0,0,0-2.46,3.2,3.59,3.59,0,0,0,2.12,3.82,11.36,11.36,0,0,0,13-2.14c.59-.59.88-.65,1.47,0,1.89,2,3.81,4,5.79,5.94.64.63.51.91-.13,1.4A22.91,22.91,0,0,1,127,119.28Z" transform="translate(-13 -20.48)"/><path class="cls-2" d="M400.12,96.65v21.51c0,.86-.19,1.18-1.11,1.15q-3.36-.09-6.73,0c-.81,0-1-.26-1-1V102.84c0-.92-.23-1.19-1.17-1.18H375.88c-1.12,0-1.37-.32-1.33-1.37.08-2.21.07-4.41,0-6.61,0-1,.19-1.27,1.22-1.26,4.78.06,9.56,0,14.35,0,.93,0,1.19-.24,1.16-1.17-.06-2.28-.07-4.56,0-6.84,0-1-.19-1.26-1.22-1.25-5.23.06-10.46,0-15.69,0-1,0-1.22-.3-1.19-1.24.07-2.35.05-4.7,0-7,0-.75.21-.94.94-.94H399c.88,0,1,.26,1,1.07C400.11,82.31,400.12,89.48,400.12,96.65Z" transform="translate(-13 -20.48)"/><path class="cls-1" d="M187.56,68.52c1.86-1.66,3.43-3.13,5.06-4.52A210.67,210.67,0,0,1,222.8,42.73a173.51,173.51,0,0,1,34.69-15.47,171.28,171.28,0,0,1,23.68-6.16,26.93,26.93,0,0,1,10.47-.2,16.58,16.58,0,0,1,13,14.17,24.89,24.89,0,0,1-2.22,14.14,41.42,41.42,0,0,1-7.52,12,7.2,7.2,0,0,1-1.36,1.16c-.46.29-1,.57-1.56.16a1.48,1.48,0,0,1-.47-1.52A9.37,9.37,0,0,1,293,57.27c.72-1.18,1.5-2.32,2.29-3.45a30.61,30.61,0,0,0,5.47-14.14,14.3,14.3,0,0,0-4.37-12.12,10.38,10.38,0,0,0-7.15-3c-5.86-.12-11.49,1.16-17.09,2.6-22.25,5.74-43,14.78-61.88,28a169.53,169.53,0,0,0-15.93,12.73,2.27,2.27,0,0,1-1.69.65C191.05,68.48,189.49,68.52,187.56,68.52Z" transform="translate(-13 -20.48)"/><path class="cls-3" d="M571.93,101.13v17c0,1-.28,1.19-1.2,1.16-2.27-.06-4.55-.07-6.83,0-.95,0-1.25-.17-1.24-1.2V84.16c0-1.08-.28-1.37-1.36-1.34-3.24.07-6.5,0-9.74,0-.68,0-1-.11-1-.9.05-2.36,0-4.71,0-7.06,0-.61.13-.84.8-.84h24.31c.65,0,.82.19.81.82V82c0,.63-.18.84-.82.81h-2.8c-.93,0-1.05.19-1.05,1C572,89.63,571.93,95.38,571.93,101.13Z" transform="translate(-13 -20.48)"/><path class="cls-4" d="M78.61,96.64V75.25c0-1,.31-1.21,1.24-1.19,2.35.07,4.71,0,7.06,0,.74,0,1,.12,1,1V118.4c0,.68-.1,1-.88,1-2.51-.05-5-.05-7.51,0-.78,0-.9-.26-.89-1C78.62,111.12,78.61,103.88,78.61,96.64Z" transform="translate(-13 -20.48)"/><path class="cls-1" d="M393.5,68.51c1.65-4.73,3.29-9.35,4.88-14a80.52,80.52,0,0,0,3.8-14.23,7.79,7.79,0,0,0-2.72,1.6,34.6,34.6,0,0,0-8.95,11.62,82,82,0,0,0-5.65,14c-.25.79-.6,1.16-1.48,1.08a23.71,23.71,0,0,0-2.92,0c-.45,0-.63-.15-.47-.59,3.13-8.32,5.64-16.94,11.3-24.07a25.31,25.31,0,0,1,10.8-8.27,3.14,3.14,0,0,1,4.06,1.8,1.18,1.18,0,0,1,.07.2c.61,2.22.09,4.3-.37,6.39a182.2,182.2,0,0,1-7.56,23.83c-.12.33-.17.71-.71.7C396.24,68.49,394.91,68.51,393.5,68.51Z" transform="translate(-13 -20.48)"/><path class="cls-5" d="M284.41,154.36l-.1.15c-.06-.13,0-.19.11-.13Z" transform="translate(-13 -20.48)"/><path class="cls-5" d="M360.66,169.37l-.09.16v-.12h.15Z" transform="translate(-13 -20.48)"/><path class="cls-6" d="M360.09,176.21c-.09.08-.18.12-.27,0l.15-.12Z" transform="translate(-13 -20.48)"/></svg>